REM DIRINDEX 1\2,1\3,1\4
REM DIRNAME folder01,folder02,folder03,folder04
TITLE ""
FILE "CD1-16.mp3" MP3
  TRACK 01 AUDIO
    TITLE "2:cjc031_0936"
    INDEX 01 00:00:00
  TRACK 02 AUDIO
    TITLE "3:cjc031_0937"
    INDEX 01 00:01:11
  TRACK 03 AUDIO
    TITLE "2:cjc031_0938"
    INDEX 01 00:02:34
  TRACK 04 AUDIO
    TITLE "3:cjc031_0939"
    INDEX 01 00:03:55
  TRACK 05 AUDIO
    TITLE "2:cjc031_0940"
    INDEX 01 00:04:68
  TRACK 06 AUDIO
    TITLE "3:cjc031_0941"
    INDEX 01 00:06:00
  TRACK 07 AUDIO
    TITLE "2:cjc031_0942"
    INDEX 01 00:07:31
  TRACK 08 AUDIO
    TITLE "3:cjc031_0943"
    INDEX 01 00:08:73
  TRACK 09 AUDIO
    TITLE "2:cjc031_0944"
    INDEX 01 00:10:29
  TRACK 10 AUDIO
    TITLE "3:cjc031_0945"
    INDEX 01 00:11:48
  TRACK 11 AUDIO
    TITLE "2:cjc031_0946"
    INDEX 01 00:12:65
  TRACK 12 AUDIO
    TITLE "3:cjc031_0947"
    INDEX 01 00:14:23
  TRACK 13 AUDIO
    TITLE "2:cjc031_0948"
    INDEX 01 00:15:60
  TRACK 14 AUDIO
    TITLE "3:cjc031_0949"
    INDEX 01 00:17:04
  TRACK 15 AUDIO
    TITLE "2:cjc031_0950"
    INDEX 01 00:18:42
  TRACK 16 AUDIO
    TITLE "3:cjc031_0951"
    INDEX 01 00:19:65
  TRACK 17 AUDIO
    TITLE "2:cjc031_0952"
    INDEX 01 00:21:21
  TRACK 18 AUDIO
    TITLE "3:cjc031_0953"
    INDEX 01 00:22:54
  TRACK 19 AUDIO
    TITLE "2:cjc031_0954"
    INDEX 01 00:24:12
  TRACK 20 AUDIO
    TITLE "3:cjc031_0955"
    INDEX 01 00:25:41
  TRACK 21 AUDIO
    TITLE "2:cjc031_0956"
    INDEX 01 00:26:73
  TRACK 22 AUDIO
    TITLE "3:cjc031_0957"
    INDEX 01 00:28:15
  TRACK 23 AUDIO
    TITLE "2:cjc031_0958"
    INDEX 01 00:29:40
  TRACK 24 AUDIO
    TITLE "3:cjc031_0959"
    INDEX 01 00:31:02
  TRACK 25 AUDIO
    TITLE "2:cjc031_0960"
    INDEX 01 00:32:56
  TRACK 26 AUDIO
    TITLE "3:cjc031_0961"
    INDEX 01 00:34:04
  TRACK 27 AUDIO
    TITLE "2:cjc031_0962"
    INDEX 01 00:35:51
  TRACK 28 AUDIO
    TITLE "3:cjc031_0963"
    INDEX 01 00:36:64
  TRACK 29 AUDIO
    TITLE "2:cjc031_0964"
    INDEX 01 00:38:53
  TRACK 30 AUDIO
    TITLE "3:cjc031_0965"
    INDEX 01 00:39:72
  TRACK 31 AUDIO
    TITLE "2:cjc031_0966"
    INDEX 01 00:41:14
  TRACK 32 AUDIO
    TITLE "3:cjc031_0967"
    INDEX 01 00:42:43
  TRACK 33 AUDIO
    TITLE "2:cjc031_0968"
    INDEX 01 00:44:22
  TRACK 34 AUDIO
    TITLE "3:cjc031_0969"
    INDEX 01 00:45:67
  TRACK 35 AUDIO
    TITLE "2:cjc031_0970"
    INDEX 01 00:47:05
  TRACK 36 AUDIO
    TITLE "3:cjc031_0971"
    INDEX 01 00:48:22
  TRACK 37 AUDIO
    TITLE "2:cjc031_0972"
    INDEX 01 00:49:31
  TRACK 38 AUDIO
    TITLE "3:cjc031_0973"
    INDEX 01 00:50:58
  TRACK 39 AUDIO
    TITLE "2:cjc031_0974"
    INDEX 01 00:52:26
  TRACK 40 AUDIO
    TITLE "3:cjc031_0975"
    INDEX 01 00:53:33
  TRACK 41 AUDIO
    TITLE "2:cjc031_0976"
    INDEX 01 00:55:03
  TRACK 42 AUDIO
    TITLE "3:cjc031_0977"
    INDEX 01 00:56:43
  TRACK 43 AUDIO
    TITLE "2:cjc031_0978"
    INDEX 01 00:58:15
  TRACK 44 AUDIO
    TITLE "3:cjc031_0979"
    INDEX 01 00:59:47
  TRACK 45 AUDIO
    TITLE "2:cjc031_0980"
    INDEX 01 01:00:70
  TRACK 46 AUDIO
    TITLE "3:cjc031_0981"
    INDEX 01 01:02:30
  TRACK 47 AUDIO
    TITLE "2:cjc031_0982"
    INDEX 01 01:03:61
  TRACK 48 AUDIO
    TITLE "3:cjc031_0983"
    INDEX 01 01:05:24
  TRACK 49 AUDIO
    TITLE "2:cjc031_0984"
    INDEX 01 01:06:63
  TRACK 50 AUDIO
    TITLE "3:cjc031_0985"
    INDEX 01 01:08:01
  TRACK 51 AUDIO
    TITLE "2:cjc031_0986"
    INDEX 01 01:09:12
  TRACK 52 AUDIO
    TITLE "3:cjc031_0987"
    INDEX 01 01:10:37
  TRACK 53 AUDIO
    TITLE "2:cjc031_0988"
    INDEX 01 01:11:68
  TRACK 54 AUDIO
    TITLE "3:cjc031_0989"
    INDEX 01 01:13:14
  TRACK 55 AUDIO
    TITLE "2:cjc031_0990"
    INDEX 01 01:15:09
  TRACK 56 AUDIO
    TITLE "3:cjc031_0991"
    INDEX 01 01:16:42
  TRACK 57 AUDIO
    TITLE "2:cjc031_0992"
    INDEX 01 01:17:73
  TRACK 58 AUDIO
    TITLE "3:cjc031_0993"
    INDEX 01 01:19:17
  TRACK 59 AUDIO
    TITLE "2:cjc031_0994"
    INDEX 01 01:20:53
  TRACK 60 AUDIO
    TITLE "3:cjc031_0995"
    INDEX 01 01:21:70
  TRACK 61 AUDIO
    TITLE "2:cjc031_0996"
    INDEX 01 01:23:32
  TRACK 62 AUDIO
    TITLE "3:cjc031_0997"
    INDEX 01 01:24:51
  TRACK 63 AUDIO
    TITLE "2:cjc031_0998"
    INDEX 01 01:25:64
  TRACK 64 AUDIO
    TITLE "3:cjc031_0999"
    INDEX 01 01:27:10
  TRACK 65 AUDIO
    TITLE "2:cjc031_1000"
    INDEX 01 01:28:47
  TRACK 66 AUDIO
    TITLE "3:cjc031_1001"
    INDEX 01 01:29:72
  TRACK 67 AUDIO
    TITLE "2:cjc031_1002"
    INDEX 01 01:31:38
  TRACK 68 AUDIO
    TITLE "3:cjc031_1003"
    INDEX 01 01:32:72
  TRACK 69 AUDIO
    TITLE "2:cjc031_1004"
    INDEX 01 01:34:34
  TRACK 70 AUDIO
    TITLE "3:cjc031_1005"
    INDEX 01 01:35:53
  TRACK 71 AUDIO
    TITLE "2:cjc031_1006"
    INDEX 01 01:37:24
  TRACK 72 AUDIO
    TITLE "3:cjc031_1007"
    INDEX 01 01:38:49
  TRACK 73 AUDIO
    TITLE "2:cjc031_1008"
    INDEX 01 01:40:07
  TRACK 74 AUDIO
    TITLE "3:cjc031_1009"
    INDEX 01 01:41:28
  TRACK 75 AUDIO
    TITLE "2:cjc031_1010"
    INDEX 01 01:42:67
  TRACK 76 AUDIO
    TITLE "3:cjc031_1011"
    INDEX 01 01:44:19
  TRACK 77 AUDIO
    TITLE "2:cjc031_1012"
    INDEX 01 01:45:71
  TRACK 78 AUDIO
    TITLE "3:cjc031_1013"
    INDEX 01 01:47:27
  TRACK 79 AUDIO
    TITLE "2:cjc031_1014"
    INDEX 01 01:48:65
  TRACK 80 AUDIO
    TITLE "3:cjc031_1015"
    INDEX 01 01:50:06
  TRACK 81 AUDIO
    TITLE "0:"
    INDEX 01 01:51:66
